<?xml version="1.0" standalone="no"?>
<!DOCTYPE svg PUBLIC "-//W3C//DTD SVG 20010904//EN"
 "http://www.w3.org/TR/2001/REC-SVG-20010904/DTD/svg10.dtd">
<svg version="1.0" xmlns="http://www.w3.org/2000/svg"
 width="260.000000pt" height="260.000000pt" viewBox="0 0 260.000000 260.000000"
 preserveAspectRatio="xMidYMid meet">
<metadata>
Created by potrace 1.11, written by Peter Selinger 2001-2013
</metadata>
<g transform="translate(0.000000,260.000000) scale(0.100000,-0.100000)"
fill="#000000" stroke="none">
<path d="M0 1300 l0 -1300 1300 0 1300 0 0 957 0 958 -342 342 -343 343 -957
0 -958 0 0 -1300z m474 386 c54 -23 76 -59 76 -128 0 -56 -3 -63 -36 -96 l-36
-36 46 -93 46 -93 -60 0 -60 0 -40 80 c-37 73 -43 80 -70 80 l-30 0 0 -80 0
-80 -55 0 -55 0 0 230 0 230 120 0 c80 0 132 -5 154 -14z m396 0 c0 -8 18 -58
39 -112 56 -139 121 -315 121 -325 0 -5 -24 -9 -54 -9 l-54 0 -14 43 c-14 39
-17 42 -54 45 -21 2 -57 1 -80 -3 -37 -5 -42 -9 -53 -45 l-12 -40 -58 0 -59 0
44 118 c24 64 44 121 44 125 0 5 18 55 41 113 l41 104 54 0 c39 0 54 -4 54
-14z m510 -26 l0 -40 -100 0 -100 0 0 -55 c0 -53 0 -54 33 -60 18 -4 60 -5 93
-3 l59 3 0 -40 0 -40 -39 3 c-22 2 -63 1 -93 -3 l-53 -6 0 -90 0 -89 -50 0
-50 0 0 118 c0 64 -3 168 -7 230 l-6 112 156 0 157 0 0 -40z m-680 -705 l0
-235 -56 0 -56 0 4 160 c2 88 3 160 2 160 -2 0 -26 -72 -56 -160 l-53 -160
-36 0 -37 0 -31 86 c-17 47 -31 90 -32 97 0 7 -11 39 -25 72 l-24 60 6 -157 6
-158 -56 0 -56 0 0 230 0 231 72 -3 72 -3 48 -149 c27 -83 51 -152 53 -154 2
-3 7 1 9 9 3 8 26 80 52 162 l47 147 74 0 73 0 0 -235z m185 133 c22 -54 44
-100 47 -103 3 -3 23 41 45 97 l41 103 61 3 62 3 -76 -150 -75 -151 0 -85 0
-85 -55 0 -55 0 0 83 0 83 -75 147 c-41 81 -75 150 -75 153 0 3 25 4 57 2 l56
-3 42 -97z m373 96 c28 -6 40 -22 109 -145 43 -76 81 -139 85 -139 4 0 6 64 5
143 l-2 142 29 3 c15 2 39 1 52 -2 l24 -6 0 -231 0 -230 -52 3 -53 3 -82 140
-83 140 0 -143 0 -142 -55 0 -55 0 0 235 0 235 24 0 c13 0 37 -3 54 -6z m610
-1 l82 -6 0 -38 0 -39 -50 0 -50 0 0 -190 0 -190 -56 0 -57 0 8 159 c4 88 4
173 0 190 -7 31 -7 31 -71 31 l-64 0 0 39 c0 39 1 40 38 44 67 7 136 7 220 0z
m122 -38 c0 -33 -4 -45 -15 -45 -11 0 -15 12 -15 45 0 33 4 45 15 45 11 0 15
-12 15 -45z m159 -2 l1 38 48 -3 47 -3 48 -130 c26 -71 63 -170 82 -218 19
-49 35 -93 35 -98 0 -5 -24 -9 -54 -9 l-53 0 -17 45 -18 45 -78 0 -77 0 -13
-45 -13 -45 -59 0 c-33 0 -58 4 -56 9 2 6 39 109 83 230 73 200 81 216 86 183
l6 -37 2 38z m-1662 -496 c41 -22 63 -64 63 -121 0 -58 -17 -94 -52 -112 l-28
-14 45 -90 c25 -49 45 -92 45 -94 0 -2 -24 -6 -54 -8 l-54 -3 -41 83 c-40 80
-42 82 -77 82 l-36 0 7 -79 c4 -49 3 -81 -3 -85 -5 -3 -31 -3 -56 0 l-46 7 0
229 0 230 128 -4 c96 -3 135 -8 159 -21z m381 11 c-2 -6 -26 -20 -54 -29 -71
-25 -75 -24 -63 11 10 28 14 30 66 30 38 0 53 -4 51 -12z m433 1 c52 -18 97
-56 121 -102 32 -61 32 -186 0 -242 -44 -77 -124 -114 -249 -115 l-82 0 -3
103 -3 102 -27 3 c-24 3 -28 8 -28 33 0 26 3 29 28 27 l27 -3 -4 103 -3 102
94 0 c52 0 110 -5 129 -11z m-344 -243 c40 -105 73 -196 73 -204 0 -12 -10
-14 -50 -9 -64 8 -68 10 -76 52 l-6 35 -83 0 -82 0 -12 -42 -12 -43 -55 3
c-30 2 -54 6 -54 9 0 4 28 83 61 178 l61 172 67 20 c36 12 73 20 81 19 9 -1
41 -71 87 -190z"/>
<path d="M310 1555 l0 -65 49 0 c59 0 81 18 81 65 0 43 -29 65 -87 65 l-43 0
0 -65z"/>
<path d="M792 1514 c-39 -110 -40 -104 17 -104 60 0 60 0 28 95 l-23 68 -22
-59z"/>
<path d="M2187 1040 c-3 -8 -13 -40 -23 -70 -9 -30 -19 -61 -22 -67 -3 -9 10
-13 47 -13 28 0 51 3 51 8 -1 24 -49 154 -53 142z"/>
<path d="M300 520 l0 -70 54 0 c47 0 57 4 75 26 27 35 26 59 -4 89 -19 20 -34
25 -75 25 l-50 0 0 -70z"/>
<path d="M1190 531 c0 -61 7 -71 51 -71 13 0 19 -7 19 -24 0 -21 -6 -25 -32
-28 -33 -3 -33 -4 -36 -60 l-3 -58 44 0 c78 0 110 58 98 175 -6 59 -11 71 -39
96 -23 20 -43 29 -67 29 l-35 0 0 -59z"/>
<path d="M806 520 c-15 -39 -46 -134 -46 -142 0 -4 23 -8 51 -8 l51 0 -7 36
c-10 58 -42 131 -49 114z"/>
</g>
</svg>
