<svg width="139" height="150" xmlns="http://www.w3.org/2000/svg"><g transform="rotate(-180 69.5 75)" fill="#F61740" fill-rule="nonzero"><ellipse transform="rotate(-90 2.233 147.77)" cx="2.233" cy="147.769" rx="2.233" ry="2.231"/><ellipse transform="rotate(-90 69.22 147.77)" cx="69.219" cy="147.769" rx="2.233" ry="2.231"/><ellipse transform="rotate(-90 2.233 103.154)" cx="2.233" cy="103.154" rx="2.233" ry="2.231"/><ellipse transform="rotate(-90 69.22 103.154)" cx="69.219" cy="103.154" rx="2.233" ry="2.231"/><ellipse transform="rotate(-90 13.397 147.77)" cx="13.397" cy="147.769" rx="2.233" ry="2.231"/><ellipse transform="rotate(-90 80.384 147.77)" cx="80.384" cy="147.769" rx="2.233" ry="2.231"/><ellipse transform="rotate(-90 13.397 103.154)" cx="13.397" cy="103.154" rx="2.233" ry="2.231"/><ellipse transform="rotate(-90 80.384 103.154)" cx="80.384" cy="103.154" rx="2.233" ry="2.231"/><ellipse transform="rotate(-90 24.562 147.77)" cx="24.562" cy="147.769" rx="2.233" ry="2.231"/><ellipse transform="rotate(-90 91.548 147.77)" cx="91.548" cy="147.769" rx="2.233" ry="2.231"/><ellipse transform="rotate(-90 24.562 103.154)" cx="24.562" cy="103.154" rx="2.233" ry="2.231"/><ellipse transform="rotate(-90 91.548 103.154)" cx="91.548" cy="103.154" rx="2.233" ry="2.231"/><ellipse transform="rotate(-90 35.726 147.77)" cx="35.726" cy="147.769" rx="2.233" ry="2.231"/><ellipse transform="rotate(-90 102.712 147.77)" cx="102.712" cy="147.769" rx="2.233" ry="2.231"/><ellipse transform="rotate(-90 35.726 103.154)" cx="35.726" cy="103.154" rx="2.233" ry="2.231"/><ellipse transform="rotate(-90 102.712 103.154)" cx="102.712" cy="103.154" rx="2.233" ry="2.231"/><ellipse transform="rotate(-90 46.89 147.77)" cx="46.89" cy="147.769" rx="2.233" ry="2.231"/><ellipse transform="rotate(-90 113.877 147.77)" cx="113.877" cy="147.769" rx="2.233" ry="2.231"/><ellipse transform="rotate(-90 46.89 103.154)" cx="46.89" cy="103.154" rx="2.233" ry="2.231"/><ellipse transform="rotate(-90 113.877 103.154)" cx="113.877" cy="103.154" rx="2.233" ry="2.231"/><ellipse transform="rotate(-90 58.055 147.77)" cx="58.055" cy="147.769" rx="2.233" ry="2.231"/><ellipse transform="rotate(-90 125.041 147.77)" cx="125.041" cy="147.769" rx="2.233" ry="2.231"/><ellipse transform="rotate(-90 136.205 147.77)" cx="136.205" cy="147.769" rx="2.233" ry="2.231"/><ellipse transform="rotate(-90 58.055 103.154)" cx="58.055" cy="103.154" rx="2.233" ry="2.231"/><ellipse transform="rotate(-90 125.041 103.154)" cx="125.041" cy="103.154" rx="2.233" ry="2.231"/><ellipse transform="rotate(-90 136.205 103.154)" cx="136.205" cy="103.154" rx="2.233" ry="2.231"/><ellipse transform="rotate(-90 2.233 136.615)" cx="2.233" cy="136.615" rx="2.233" ry="2.231"/><ellipse transform="rotate(-90 69.22 136.615)" cx="69.219" cy="136.615" rx="2.233" ry="2.231"/><ellipse transform="rotate(-90 2.233 92)" cx="2.233" cy="92" rx="2.233" ry="2.231"/><ellipse transform="rotate(-90 69.22 92)" cx="69.219" cy="92" rx="2.233" ry="2.231"/><ellipse transform="rotate(-90 13.397 136.615)" cx="13.397" cy="136.615" rx="2.233" ry="2.231"/><ellipse transform="rotate(-90 80.384 136.615)" cx="80.384" cy="136.615" rx="2.233" ry="2.231"/><ellipse transform="rotate(-90 13.397 92)" cx="13.397" cy="92" rx="2.233" ry="2.231"/><ellipse transform="rotate(-90 80.384 92)" cx="80.384" cy="92" rx="2.233" ry="2.231"/><ellipse transform="rotate(-90 24.562 136.615)" cx="24.562" cy="136.615" rx="2.233" ry="2.231"/><ellipse transform="rotate(-90 91.548 136.615)" cx="91.548" cy="136.615" rx="2.233" ry="2.231"/><ellipse transform="rotate(-90 24.562 92)" cx="24.562" cy="92" rx="2.233" ry="2.231"/><ellipse transform="rotate(-90 91.548 92)" cx="91.548" cy="92" rx="2.233" ry="2.231"/><ellipse transform="rotate(-90 35.726 136.615)" cx="35.726" cy="136.615" rx="2.233" ry="2.231"/><ellipse transform="rotate(-90 102.712 136.615)" cx="102.712" cy="136.615" rx="2.233" ry="2.231"/><ellipse transform="rotate(-90 35.726 92)" cx="35.726" cy="92" rx="2.233" ry="2.231"/><ellipse transform="rotate(-90 102.712 92)" cx="102.712" cy="92" rx="2.233" ry="2.231"/><ellipse transform="rotate(-90 46.89 136.615)" cx="46.89" cy="136.615" rx="2.233" ry="2.231"/><ellipse transform="rotate(-90 113.877 136.615)" cx="113.877" cy="136.615" rx="2.233" ry="2.231"/><ellipse transform="rotate(-90 46.89 92)" cx="46.89" cy="92" rx="2.233" ry="2.231"/><ellipse transform="rotate(-90 113.877 92)" cx="113.877" cy="92" rx="2.233" ry="2.231"/><ellipse transform="rotate(-90 58.055 136.615)" cx="58.055" cy="136.615" rx="2.233" ry="2.231"/><ellipse transform="rotate(-90 125.041 136.615)" cx="125.041" cy="136.615" rx="2.233" ry="2.231"/><ellipse transform="rotate(-90 136.205 136.615)" cx="136.205" cy="136.615" rx="2.233" ry="2.231"/><ellipse transform="rotate(-90 58.055 92)" cx="58.055" cy="92" rx="2.233" ry="2.231"/><ellipse transform="rotate(-90 125.041 92)" cx="125.041" cy="92" rx="2.233" ry="2.231"/><ellipse transform="rotate(-90 136.205 92)" cx="136.205" cy="92" rx="2.233" ry="2.231"/><ellipse transform="rotate(-90 2.233 125.462)" cx="2.233" cy="125.462" rx="2.233" ry="2.231"/><ellipse transform="rotate(-90 69.22 125.462)" cx="69.219" cy="125.462" rx="2.233" ry="2.231"/><ellipse transform="rotate(-90 2.233 80.846)" cx="2.233" cy="80.846" rx="2.233" ry="2.231"/><ellipse transform="rotate(-90 69.22 80.846)" cx="69.219" cy="80.846" rx="2.233" ry="2.231"/><ellipse transform="rotate(-90 13.397 125.462)" cx="13.397" cy="125.462" rx="2.233" ry="2.231"/><ellipse transform="rotate(-90 80.384 125.462)" cx="80.384" cy="125.462" rx="2.233" ry="2.231"/><ellipse transform="rotate(-90 13.397 80.846)" cx="13.397" cy="80.846" rx="2.233" ry="2.231"/><ellipse transform="rotate(-90 80.384 80.846)" cx="80.384" cy="80.846" rx="2.233" ry="2.231"/><ellipse transform="rotate(-90 24.562 125.462)" cx="24.562" cy="125.462" rx="2.233" ry="2.231"/><ellipse transform="rotate(-90 91.548 125.462)" cx="91.548" cy="125.462" rx="2.233" ry="2.231"/><ellipse transform="rotate(-90 24.562 80.846)" cx="24.562" cy="80.846" rx="2.233" ry="2.231"/><ellipse transform="rotate(-90 91.548 80.846)" cx="91.548" cy="80.846" rx="2.233" ry="2.231"/><ellipse transform="rotate(-90 35.726 125.462)" cx="35.726" cy="125.462" rx="2.233" ry="2.231"/><ellipse transform="rotate(-90 102.712 125.462)" cx="102.712" cy="125.462" rx="2.233" ry="2.231"/><ellipse transform="rotate(-90 35.726 80.846)" cx="35.726" cy="80.846" rx="2.233" ry="2.231"/><ellipse transform="rotate(-90 102.712 80.846)" cx="102.712" cy="80.846" rx="2.233" ry="2.231"/><ellipse transform="rotate(-90 46.89 125.462)" cx="46.89" cy="125.462" rx="2.233" ry="2.231"/><ellipse transform="rotate(-90 113.877 125.462)" cx="113.877" cy="125.462" rx="2.233" ry="2.231"/><ellipse transform="rotate(-90 46.89 80.846)" cx="46.89" cy="80.846" rx="2.233" ry="2.231"/><ellipse transform="rotate(-90 113.877 80.846)" cx="113.877" cy="80.846" rx="2.233" ry="2.231"/><ellipse transform="rotate(-90 58.055 125.462)" cx="58.055" cy="125.462" rx="2.233" ry="2.231"/><ellipse transform="rotate(-90 125.041 125.462)" cx="125.041" cy="125.462" rx="2.233" ry="2.231"/><ellipse transform="rotate(-90 136.205 125.462)" cx="136.205" cy="125.462" rx="2.233" ry="2.231"/><ellipse transform="rotate(-90 58.055 80.846)" cx="58.055" cy="80.846" rx="2.233" ry="2.231"/><ellipse transform="rotate(-90 125.041 80.846)" cx="125.041" cy="80.846" rx="2.233" ry="2.231"/><ellipse transform="rotate(-90 136.205 80.846)" cx="136.205" cy="80.846" rx="2.233" ry="2.231"/><ellipse transform="rotate(-90 2.233 114.308)" cx="2.233" cy="114.308" rx="2.233" ry="2.231"/><ellipse transform="rotate(-90 69.22 114.308)" cx="69.219" cy="114.308" rx="2.233" ry="2.231"/><ellipse transform="rotate(-90 2.233 69.692)" cx="2.233" cy="69.692" rx="2.233" ry="2.231"/><ellipse transform="rotate(-90 2.233 36.23)" cx="2.233" cy="36.231" rx="2.233" ry="2.231"/><ellipse transform="rotate(-90 2.233 58.538)" cx="2.233" cy="58.538" rx="2.233" ry="2.231"/><ellipse transform="rotate(-90 2.233 25.077)" cx="2.233" cy="25.077" rx="2.233" ry="2.231"/><ellipse transform="rotate(-90 2.233 47.385)" cx="2.233" cy="47.385" rx="2.233" ry="2.231"/><ellipse transform="rotate(-90 2.233 13.923)" cx="2.233" cy="13.923" rx="2.233" ry="2.231"/><ellipse transform="rotate(-90 2.233 2.77)" cx="2.233" cy="2.769" rx="2.233" ry="2.231"/><ellipse transform="rotate(-90 69.22 69.692)" cx="69.219" cy="69.692" rx="2.233" ry="2.231"/><ellipse transform="rotate(-90 69.22 36.23)" cx="69.219" cy="36.231" rx="2.233" ry="2.231"/><ellipse transform="rotate(-90 69.22 58.538)" cx="69.219" cy="58.538" rx="2.233" ry="2.231"/><ellipse transform="rotate(-90 69.22 25.077)" cx="69.219" cy="25.077" rx="2.233" ry="2.231"/><ellipse transform="rotate(-90 69.22 47.385)" cx="69.219" cy="47.385" rx="2.233" ry="2.231"/><ellipse transform="rotate(-90 69.22 13.923)" cx="69.219" cy="13.923" rx="2.233" ry="2.231"/><ellipse transform="rotate(-90 69.22 2.77)" cx="69.219" cy="2.769" rx="2.233" ry="2.231"/><ellipse transform="rotate(-90 13.397 114.308)" cx="13.397" cy="114.308" rx="2.233" ry="2.231"/><ellipse transform="rotate(-90 80.384 114.308)" cx="80.384" cy="114.308" rx="2.233" ry="2.231"/><ellipse transform="rotate(-90 13.397 69.692)" cx="13.397" cy="69.692" rx="2.233" ry="2.231"/><ellipse transform="rotate(-90 13.397 36.23)" cx="13.397" cy="36.231" rx="2.233" ry="2.231"/><ellipse transform="rotate(-90 13.397 58.538)" cx="13.397" cy="58.538" rx="2.233" ry="2.231"/><ellipse transform="rotate(-90 13.397 25.077)" cx="13.397" cy="25.077" rx="2.233" ry="2.231"/><ellipse transform="rotate(-90 13.397 47.385)" cx="13.397" cy="47.385" rx="2.233" ry="2.231"/><ellipse transform="rotate(-90 13.397 13.923)" cx="13.397" cy="13.923" rx="2.233" ry="2.231"/><ellipse transform="rotate(-90 13.397 2.77)" cx="13.397" cy="2.769" rx="2.233" ry="2.231"/><ellipse transform="rotate(-90 80.384 69.692)" cx="80.384" cy="69.692" rx="2.233" ry="2.231"/><ellipse transform="rotate(-90 80.384 36.23)" cx="80.384" cy="36.231" rx="2.233" ry="2.231"/><ellipse transform="rotate(-90 80.384 58.538)" cx="80.384" cy="58.538" rx="2.233" ry="2.231"/><ellipse transform="rotate(-90 80.384 25.077)" cx="80.384" cy="25.077" rx="2.233" ry="2.231"/><ellipse transform="rotate(-90 80.384 47.385)" cx="80.384" cy="47.385" rx="2.233" ry="2.231"/><ellipse transform="rotate(-90 80.384 13.923)" cx="80.384" cy="13.923" rx="2.233" ry="2.231"/><ellipse transform="rotate(-90 80.384 2.77)" cx="80.384" cy="2.769" rx="2.233" ry="2.231"/><ellipse transform="rotate(-90 24.562 114.308)" cx="24.562" cy="114.308" rx="2.233" ry="2.231"/><ellipse transform="rotate(-90 91.548 114.308)" cx="91.548" cy="114.308" rx="2.233" ry="2.231"/><ellipse transform="rotate(-90 24.562 69.692)" cx="24.562" cy="69.692" rx="2.233" ry="2.231"/><ellipse transform="rotate(-90 24.562 36.23)" cx="24.562" cy="36.231" rx="2.233" ry="2.231"/><ellipse transform="rotate(-90 24.562 58.538)" cx="24.562" cy="58.538" rx="2.233" ry="2.231"/><ellipse transform="rotate(-90 24.562 25.077)" cx="24.562" cy="25.077" rx="2.233" ry="2.231"/><ellipse transform="rotate(-90 24.562 47.385)" cx="24.562" cy="47.385" rx="2.233" ry="2.231"/><ellipse transform="rotate(-90 24.562 13.923)" cx="24.562" cy="13.923" rx="2.233" ry="2.231"/><ellipse transform="rotate(-90 24.562 2.77)" cx="24.562" cy="2.769" rx="2.233" ry="2.231"/><ellipse transform="rotate(-90 91.548 69.692)" cx="91.548" cy="69.692" rx="2.233" ry="2.231"/><ellipse transform="rotate(-90 91.548 36.23)" cx="91.548" cy="36.231" rx="2.233" ry="2.231"/><ellipse transform="rotate(-90 91.548 58.538)" cx="91.548" cy="58.538" rx="2.233" ry="2.231"/><ellipse transform="rotate(-90 91.548 25.077)" cx="91.548" cy="25.077" rx="2.233" ry="2.231"/><ellipse transform="rotate(-90 91.548 47.385)" cx="91.548" cy="47.385" rx="2.233" ry="2.231"/><ellipse transform="rotate(-90 91.548 13.923)" cx="91.548" cy="13.923" rx="2.233" ry="2.231"/><ellipse transform="rotate(-90 91.548 2.77)" cx="91.548" cy="2.769" rx="2.233" ry="2.231"/><ellipse transform="rotate(-90 35.726 114.308)" cx="35.726" cy="114.308" rx="2.233" ry="2.231"/><ellipse transform="rotate(-90 102.712 114.308)" cx="102.712" cy="114.308" rx="2.233" ry="2.231"/><ellipse transform="rotate(-90 35.726 69.692)" cx="35.726" cy="69.692" rx="2.233" ry="2.231"/><ellipse transform="rotate(-90 35.726 36.23)" cx="35.726" cy="36.231" rx="2.233" ry="2.231"/><ellipse transform="rotate(-90 35.726 58.538)" cx="35.726" cy="58.538" rx="2.233" ry="2.231"/><ellipse transform="rotate(-90 35.726 25.077)" cx="35.726" cy="25.077" rx="2.233" ry="2.231"/><ellipse transform="rotate(-90 35.726 47.385)" cx="35.726" cy="47.385" rx="2.233" ry="2.231"/><ellipse transform="rotate(-90 35.726 13.923)" cx="35.726" cy="13.923" rx="2.233" ry="2.231"/><ellipse transform="rotate(-90 35.726 2.77)" cx="35.726" cy="2.769" rx="2.233" ry="2.231"/><ellipse transform="rotate(-90 102.712 69.692)" cx="102.712" cy="69.692" rx="2.233" ry="2.231"/><ellipse transform="rotate(-90 102.712 36.23)" cx="102.712" cy="36.231" rx="2.233" ry="2.231"/><ellipse transform="rotate(-90 102.712 58.538)" cx="102.712" cy="58.538" rx="2.233" ry="2.231"/><ellipse transform="rotate(-90 102.712 25.077)" cx="102.712" cy="25.077" rx="2.233" ry="2.231"/><ellipse transform="rotate(-90 102.712 47.385)" cx="102.712" cy="47.385" rx="2.233" ry="2.231"/><ellipse transform="rotate(-90 102.712 13.923)" cx="102.712" cy="13.923" rx="2.233" ry="2.231"/><ellipse transform="rotate(-90 46.89 114.308)" cx="46.89" cy="114.308" rx="2.233" ry="2.231"/><ellipse transform="rotate(-90 113.877 114.308)" cx="113.877" cy="114.308" rx="2.233" ry="2.231"/><ellipse transform="rotate(-90 46.89 69.692)" cx="46.89" cy="69.692" rx="2.233" ry="2.231"/><ellipse transform="rotate(-90 46.89 36.23)" cx="46.89" cy="36.231" rx="2.233" ry="2.231"/><ellipse transform="rotate(-90 46.89 58.538)" cx="46.89" cy="58.538" rx="2.233" ry="2.231"/><ellipse transform="rotate(-90 46.89 25.077)" cx="46.89" cy="25.077" rx="2.233" ry="2.231"/><ellipse transform="rotate(-90 46.89 47.385)" cx="46.89" cy="47.385" rx="2.233" ry="2.231"/><ellipse transform="rotate(-90 46.89 13.923)" cx="46.89" cy="13.923" rx="2.233" ry="2.231"/><ellipse transform="rotate(-90 46.89 2.77)" cx="46.89" cy="2.769" rx="2.233" ry="2.231"/><ellipse transform="rotate(-90 113.877 69.692)" cx="113.877" cy="69.692" rx="2.233" ry="2.231"/><ellipse transform="rotate(-90 113.877 36.23)" cx="113.877" cy="36.231" rx="2.233" ry="2.231"/><ellipse transform="rotate(-90 113.877 58.538)" cx="113.877" cy="58.538" rx="2.233" ry="2.231"/><ellipse transform="rotate(-90 113.877 25.077)" cx="113.877" cy="25.077" rx="2.233" ry="2.231"/><ellipse transform="rotate(-90 113.877 47.385)" cx="113.877" cy="47.385" rx="2.233" ry="2.231"/><ellipse transform="rotate(-90 58.055 114.308)" cx="58.055" cy="114.308" rx="2.233" ry="2.231"/><ellipse transform="rotate(-90 125.041 114.308)" cx="125.041" cy="114.308" rx="2.233" ry="2.231"/><ellipse transform="rotate(-90 136.205 114.308)" cx="136.205" cy="114.308" rx="2.233" ry="2.231"/><ellipse transform="rotate(-90 58.055 69.692)" cx="58.055" cy="69.692" rx="2.233" ry="2.231"/><ellipse transform="rotate(-90 58.055 36.23)" cx="58.055" cy="36.231" rx="2.233" ry="2.231"/><ellipse transform="rotate(-90 58.055 58.538)" cx="58.055" cy="58.538" rx="2.233" ry="2.231"/><ellipse transform="rotate(-90 58.055 25.077)" cx="58.055" cy="25.077" rx="2.233" ry="2.231"/><ellipse transform="rotate(-90 58.055 47.385)" cx="58.055" cy="47.385" rx="2.233" ry="2.231"/><ellipse transform="rotate(-90 58.055 13.923)" cx="58.055" cy="13.923" rx="2.233" ry="2.231"/><ellipse transform="rotate(-90 58.055 2.77)" cx="58.055" cy="2.769" rx="2.233" ry="2.231"/><ellipse transform="rotate(-90 125.041 69.692)" cx="125.041" cy="69.692" rx="2.233" ry="2.231"/><ellipse transform="rotate(-90 125.041 36.23)" cx="125.041" cy="36.231" rx="2.233" ry="2.231"/><ellipse transform="rotate(-90 125.041 58.538)" cx="125.041" cy="58.538" rx="2.233" ry="2.231"/><ellipse transform="rotate(-90 125.041 47.385)" cx="125.041" cy="47.385" rx="2.233" ry="2.231"/><ellipse transform="rotate(-90 136.205 69.692)" cx="136.205" cy="69.692" rx="2.233" ry="2.231"/><ellipse transform="rotate(-90 136.205 58.538)" cx="136.205" cy="58.538" rx="2.233" ry="2.231"/><ellipse transform="rotate(-90 136.205 47.385)" cx="136.205" cy="47.385" rx="2.233" ry="2.231"/></g></svg>