<svg width="47" height="47" xmlns="http://www.w3.org/2000/svg"><g fill-rule="nonzero" fill="none"><g fill="#F61740"><path d="M33.645 11H11v4.355h22.645V11zm-.87 3.484H11.87V11.87h20.903v2.613z"/><path d="M12.742 12.742h.856v.856h-.856zM14.484 12.742h.856v.856h-.856zM16.226 12.742h.856v.856h-.856zM11.871 16.226H11v17.42h5.226v-.872H11.87zM32.774 16.226h.857v11.322h-.857zM29.29 19.005l-5.558-2.78h-2.819l-5.558 2.78v1.576H29.29v-1.576zm-.87.705H16.225v-.167l4.893-2.446h2.407l4.893 2.446v.167zM15.355 26.677H29.29v.857H15.355zM15.355 21.452h.856v4.354h-.856zM17.097 21.452h.856v4.354h-.856zM21.016 21.452h.857v4.354h-.857zM22.758 21.452h.857v4.354h-.857zM26.677 21.452h.857v4.354h-.857zM28.42 21.452h.856v4.354h-.857zM34.516 31.112v-.95h-.87v.87h-.872v-.87h-.87v.87h-.872v4.355h.871v.871h.871v-.87h.871v.87h.871v-.951a1.3 1.3 0 0 0 .537-2.097 1.3 1.3 0 0 0-.537-2.098zm-.435 3.404h-2.178v-.87h2.178a.436.436 0 0 1 0 .87zm0-1.742h-2.178v-.87h2.178a.436.436 0 0 1 0 .87z"/><path d="M33.21 29.29c.901 0 1.782.315 2.48.885l.551-.673a4.8 4.8 0 0 0-3.031-1.083 4.796 4.796 0 0 0-4.79 4.79 4.8 4.8 0 0 0 1.081 3.032l.674-.552a3.925 3.925 0 0 1-.885-2.48 3.924 3.924 0 0 1 3.92-3.919zM36.918 30.178l-.674.552c.57.697.885 1.578.885 2.48a3.924 3.924 0 0 1-3.92 3.919 3.927 3.927 0 0 1-2.479-.885l-.552.674A4.8 4.8 0 0 0 33.21 38c2.64 0 4.79-2.15 4.79-4.79a4.8 4.8 0 0 0-1.082-3.032zM26.677 34.516h.857v.857h-.857zM21.016 35.367l-2.774-2.157 2.774-2.158v.851h3.92v-.87h-3.049V29.27l-5.064 3.939 5.064 3.939v-1.762h3.92v-.87h-4.79zM25.806 31.032h1.742v.857h-1.742z"/></g><path d="M7.821 40.328c9.29 8.663 23.844 8.155 32.507-1.135 8.663-9.29 8.155-23.844-1.135-32.507-9.29-8.663-23.844-8.155-32.507 1.135a22.905 22.905 0 0 0-5.237 9.154 23.1 23.1 0 0 0-.52 10.928" stroke="#F61740"/></g></svg>