<svg width="47" height="47" xmlns="http://www.w3.org/2000/svg"><g fill-rule="nonzero" fill="none"><path d="M7.821 40.328c9.29 8.663 23.844 8.155 32.507-1.135 8.663-9.29 8.155-23.844-1.135-32.507-9.29-8.663-23.844-8.155-32.507 1.135a22.905 22.905 0 0 0-5.237 9.154 23.1 23.1 0 0 0-.52 10.928" stroke="#F61740"/><path d="M27.279 19.878c0-.852-.641-1.546-1.428-1.546h-6.19v3.09h6.19c.787 0 1.428-.693 1.428-1.544zm-1.428.515h-5.237v-1.03h5.237c.262 0 .476.23.476.515 0 .284-.214.515-.476.515zM19.662 27.604h6.189c.787 0 1.428-.693 1.428-1.545s-.641-1.546-1.428-1.546h-6.19v3.09zm.952-2.06h5.237c.262 0 .476.23.476.515 0 .284-.214.515-.476.515h-5.237v-1.03zM25.85 9.996v7.306h.477c.677 0 1.304.306 1.764.86l.142.17h3.49l2.22-1.803v-2.104l1.15-1.244h.367c.197.598.72 1.03 1.34 1.03.788 0 1.428-.693 1.428-1.545s-.64-1.545-1.428-1.545c-.62 0-1.143.432-1.34 1.03h-.761l-1.707 1.847v2.016l-1.587 1.288h-2.757a3.252 3.252 0 0 0-1.845-.993V9.996c.552-.213.952-.78.952-1.45 0-.852-.64-1.546-1.428-1.546-.788 0-1.429.694-1.429 1.546 0 .67.4 1.237.953 1.45zm10.95 2.155c.262 0 .476.23.476.515 0 .285-.214.515-.476.515s-.476-.23-.476-.515c0-.284.214-.515.476-.515zm-10.473-4.12c.262 0 .476.23.476.515 0 .284-.214.515-.476.515-.263 0-.476-.231-.476-.515 0-.285.213-.516.476-.516zM13.949 10.09c.62 0 1.143-.431 1.34-1.03h1.358l1.586 1.288v2.06l1.905 1.546v3.348h4.76v-4.378l-1.904-1.545V9.996c.553-.213.952-.78.952-1.45 0-.852-.64-1.546-1.428-1.546-.787 0-1.428.694-1.428 1.546 0 .67.4 1.237.952 1.45v1.898l1.904 1.545v2.833H21.09v-2.833l-1.904-1.545v-2.06L16.964 8.03h-1.675c-.197-.598-.72-1.03-1.34-1.03-.788 0-1.428.694-1.428 1.546 0 .851.64 1.545 1.428 1.545zm8.57-1.03c-.263 0-.477-.23-.477-.514 0-.285.214-.516.476-.516s.476.231.476.516c0 .284-.214.515-.476.515zm-8.57-1.03c.262 0 .476.231.476.516 0 .284-.214.515-.476.515s-.476-.231-.476-.515c0-.285.214-.516.476-.516z" fill="#F61740"/><path d="M10.14 14.727c.62 0 1.144-.433 1.34-1.03h5.167l1.586 1.287v1.288h-.952v8.241h.952v-7.21h.953v-2.834l-2.222-1.803H11.48c-.197-.598-.72-1.03-1.34-1.03-.788 0-1.429.693-1.429 1.545s.64 1.546 1.428 1.546zm0-2.06c.263 0 .476.23.476.514 0 .285-.213.515-.476.515-.262 0-.476-.23-.476-.515 0-.284.214-.515.476-.515zM32.992 35.845c-.62 0-1.144.432-1.341 1.03h-5.166l-1.587-1.287v-6.954h-4.76v7.306c-.553.213-.952.78-.952 1.45 0 .853.64 1.546 1.428 1.546.787 0 1.428-.693 1.428-1.545 0-.671-.4-1.238-.952-1.45v-6.277h2.856v6.439l2.222 1.803h5.483c.198.598.721 1.03 1.341 1.03.788 0 1.428-.693 1.428-1.545s-.641-1.546-1.428-1.546zm-12.378 2.06c-.262 0-.476-.23-.476-.514 0-.285.214-.515.476-.515s.476.23.476.515c0 .284-.214.515-.476.515zm12.378 0c-.263 0-.476-.23-.476-.514 0-.285.213-.515.476-.515.262 0 .476.23.476.515 0 .284-.214.515-.476.515zM19.186 28.634h-.953v-3.09h-4.372c-.197-.599-.72-1.03-1.34-1.03-.788 0-1.429.693-1.429 1.545s.641 1.545 1.429 1.545c.62 0 1.143-.432 1.34-1.03h3.42v3.09h.952v2.833l-1.586 1.288H11.48c-.197-.598-.72-1.03-1.34-1.03-.788 0-1.429.693-1.429 1.545s.64 1.545 1.428 1.545c.62 0 1.144-.432 1.34-1.03h5.484l2.222-1.803v-4.378zm-6.665-2.06c-.263 0-.476-.231-.476-.515 0-.285.213-.515.476-.515.262 0 .476.23.476.515 0 .284-.214.515-.476.515zm-2.38 8.241c-.263 0-.477-.23-.477-.515 0-.284.214-.515.476-.515.263 0 .476.23.476.515 0 .284-.213.515-.476.515z" fill="#F61740"/><path d="M37.276 35.94v-1.897l-2.222-1.803H28.39l-1.586-1.288v-1.324c1.613-.25 2.856-1.756 2.856-3.57 0-1.31-.649-2.458-1.617-3.09.839-.547 1.438-1.483 1.583-2.575h5.835c.197.598.72 1.03 1.34 1.03.788 0 1.429-.694 1.429-1.545 0-.852-.64-1.546-1.428-1.546-.62 0-1.144.432-1.341 1.03h-6.753v.516c0 1.42-1.068 2.575-2.38 2.575v1.03c1.312 0 2.38 1.156 2.38 2.576 0 1.42-1.068 2.575-2.38 2.575h-.476v2.833l2.221 1.803h6.665l1.587 1.288v1.382c-.553.213-.952.78-.952 1.45 0 .853.64 1.546 1.428 1.546.788 0 1.428-.693 1.428-1.545 0-.671-.4-1.238-.952-1.45zM36.8 19.362c.262 0 .476.231.476.516 0 .284-.214.515-.476.515s-.476-.231-.476-.515c0-.285.214-.516.476-.516zm0 18.544c-.262 0-.476-.231-.476-.515 0-.285.214-.515.476-.515s.476.23.476.515c0 .284-.214.515-.476.515z" fill="#F61740"/></g></svg>