<svg width="47" height="47" xmlns="http://www.w3.org/2000/svg"><g fill-rule="nonzero" fill="none"><path d="M7.821 40.328c9.29 8.663 23.844 8.155 32.507-1.135 8.663-9.29 8.155-23.844-1.135-32.507-9.29-8.663-23.844-8.155-32.507 1.135a22.905 22.905 0 0 0-5.237 9.154 23.1 23.1 0 0 0-.52 10.928" stroke="#F61740"/><g fill="#F61740"><path d="M25.452 21.67v-1.057h-.968v.968h-.968v-.968h-.968v.968h-.967v4.838h.967v.968h.968v-.968h.968v.968h.968V26.33a1.445 1.445 0 0 0 .597-2.33 1.445 1.445 0 0 0-.597-2.33zm-.484 3.782h-2.42v-.968h2.42a.484.484 0 0 1 0 .968zm0-1.936h-2.42v-.968h2.42a.484.484 0 0 1 0 .968z"/><path d="M24 19.645c1.002 0 1.98.35 2.755.983l.613-.749A5.333 5.333 0 0 0 24 18.677 5.329 5.329 0 0 0 18.677 24c0 1.225.428 2.42 1.203 3.368l.748-.613A4.363 4.363 0 0 1 19.645 24 4.36 4.36 0 0 1 24 19.645zM27.372 21.245c.633.775.983 1.753.983 2.755A4.36 4.36 0 0 1 24 28.355a4.36 4.36 0 0 1-2.755-.983l-.613.749A5.333 5.333 0 0 0 24 29.323 5.329 5.329 0 0 0 29.323 24c0-1.225-.428-2.42-1.203-3.368l-.748.613z"/><path d="M37.167 21.59l-1.69-6.081a1.45 1.45 0 1 0-2.26-1.419l-2.642.48a1.447 1.447 0 0 0-1.252-.731c-.02 0-.038.005-.058.006l-.923-2.309c.302-.266.497-.651.497-1.084 0-.8-.652-1.452-1.452-1.452-.696 0-1.279.494-1.419 1.149l-7.917 1.032a1.936 1.936 0 0 0-1.793-1.213 1.937 1.937 0 0 0-1.788 2.672l-3.215 2.41a1.442 1.442 0 0 0-.803-.244c-.8 0-1.452.652-1.452 1.452 0 .63.406 1.162.968 1.363v10.34c-.562.2-.968.732-.968 1.362 0 .8.651 1.451 1.452 1.451.44 0 .83-.201 1.097-.511l3.28 1.261c-.009.073-.023.143-.023.218 0 1.067.869 1.935 1.936 1.935.328 0 .632-.09.903-.234l3.143 3.429a1.43 1.43 0 0 0-.175.676c0 .8.651 1.452 1.452 1.452a1.45 1.45 0 0 0 1.362-.968h4.05c.2.562.732.968 1.362.968.8 0 1.452-.651 1.452-1.452a1.43 1.43 0 0 0-.175-.676l3.478-3.795a1.453 1.453 0 0 0 2.02-1.335c-.001-.454-.215-.856-.544-1.122l1.83-5.185c.056.005.108.017.165.017A1.937 1.937 0 0 0 39 23.516a1.933 1.933 0 0 0-1.833-1.925zm-2.522-7.751a.484.484 0 1 1 0 .968.484.484 0 0 1 0-.968zm-3.894 1.684l2.641-.48c.235.407.658.686 1.152.721l1.672 6.021c-.026.013-.051.028-.077.042l-5.53-5.877c.067-.133.117-.275.142-.427zm4.68 6.964a1.909 1.909 0 0 0-.256.62l-3.954.159a7.256 7.256 0 0 0-3.06-5.204l.848-1.356a1.436 1.436 0 0 0 .898-.089l5.524 5.87zM30.291 24A6.298 6.298 0 0 1 24 30.29 6.298 6.298 0 0 1 17.71 24 6.298 6.298 0 0 1 24 17.71 6.298 6.298 0 0 1 30.29 24zm-.968-9.194a.484.484 0 1 1-.001.97.484.484 0 0 1 0-.97zm-1.936-4.838a.484.484 0 1 1 0 .968.484.484 0 0 1 0-.968zm-9.217 2.174l7.93-1.034c.24.47.724.795 1.287.795.02 0 .038-.005.057-.006l.923 2.309a1.442 1.442 0 0 0-.496 1.084c0 .341.123.65.32.898l-.857 1.372a7.212 7.212 0 0 0-6.829.082l-2.833-4.427c.27-.29.446-.661.498-1.073zm1.525 6.028a7.301 7.301 0 0 0-1.784 1.893l-1.193-.663c.013-.078.024-.156.024-.239 0-.561-.324-1.044-.792-1.285l.541-4.061c.126-.015.248-.042.365-.08l2.839 4.435zm-3.437-7.235a.969.969 0 0 1 0 1.936.969.969 0 0 1 0-1.936zm-.484 8.226a.484.484 0 1 1-.969 0 .484.484 0 0 1 .97 0zm-.717-5.752c.144.115.3.214.474.285l-.54 4.047a1.437 1.437 0 0 0-.619.305l-2.498-1.5c.02-.092.03-.189.03-.288 0-.15-.03-.293-.073-.43l3.226-2.42zm-4.605 2.365a.484.484 0 1 1-.001.969.484.484 0 0 1 0-.969zm0 14.032a.484.484 0 1 1 0-.968.484.484 0 0 1 0 .968zm.483-12.185c.16-.057.306-.142.435-.248l2.498 1.499a1.445 1.445 0 0 0 .398 1.316l-3.33 6.992v-9.56zm4.236 12.998L11.9 29.361c0-.013.004-.025.004-.038 0-.401-.163-.764-.427-1.027l3.666-7.698c.05.005.098.015.148.015.368 0 .7-.142.956-.367l1.197.664a7.194 7.194 0 0 0 1.259 8.034l-1.038 1.107a1.91 1.91 0 0 0-.922-.245 1.93 1.93 0 0 0-1.57.813zm1.57 2.09a.969.969 0 0 1 0-1.935.969.969 0 0 1 0 1.936zm5.324 5.323a.484.484 0 1 1 0-.968.484.484 0 0 1 0 .968zm5.411-.967h-4.05a1.449 1.449 0 0 0-1.93-.852l-3.133-3.42c.197-.303.314-.663.314-1.051 0-.38-.114-.733-.304-1.033l1.03-1.098A7.221 7.221 0 0 0 24 31.258c.661 0 1.3-.097 1.909-.263l1.911 5.521c-.154.152-.27.34-.344.549zm1.363.967a.484.484 0 1 1 0-.968.484.484 0 0 1 0 .968zm.568-1.82a1.445 1.445 0 0 0-.568-.115c-.046 0-.09.009-.135.013l-1.878-5.425a7.289 7.289 0 0 0 2.743-2.038l3.229 2.614a1.442 1.442 0 0 0-.088.48c0 .246.066.474.175.677l-3.478 3.795zm4.754-3.986a.484.484 0 1 1 .001-.969.484.484 0 0 1 0 .969zm-.001-1.936c-.277 0-.534.083-.754.218l-3.271-2.648a7.205 7.205 0 0 0 1.111-3.627l3.974-.159c.131.43.4.801.765 1.048L34.16 30.29zm2.905-5.806a.969.969 0 0 1 0-1.936.969.969 0 0 1 0 1.936z"/></g></g></svg>