<svg id="Layer_1" data-name="Layer 1" xmlns="http://www.w3.org/2000/svg" viewBox="0 0 311.81 311.81"><defs><style>.cls-1{fill:#fff}.cls-2{fill:#b2b9d8}.cls-3{fill:#ed1944}</style></defs><path class="cls-1" d="M224.85 11.73L300.08 87v213.08H11.73V11.73h213.12M229.71 0H0v311.81h311.81V82.1L229.71 0z"/><path class="cls-1" d="M100 240l-17 5.76-13.8 37.72h12.53l2.8-9.09h16.07l2.84 9.09H116zm-12.66 25.33l5.21-16.87 5.25 16.87zM163.91 236.11h-1.34v4.69h-1.86v-4.69h-1.44v-1.28h4.64zm5.43 1l-1.08 3.73h-.91l-1.08-3.76v3.76h-1.63v-6h2l1.17 4 1.3-4H171v6h-1.63zM46.41 158.73h-6.35v17.2H28.33v-48.64h19.15q8.66 0 13.53 3.83T65.89 142a15.78 15.78 0 0 1-2.06 8.41 14.54 14.54 0 0 1-6.43 5.41l10.16 19.64v.5H55zm-6.35-9h7.42a6.67 6.67 0 0 0 5-1.75 8 8 0 0 0 0-9.85 6.58 6.58 0 0 0-5-1.79h-7.42zM100.6 166.84H84.53l-2.8 9.09H69.2L87 127.29h11l18 48.64h-12.6zm-13.26-9.05H97.8l-5.25-16.87zM150.22 156.55h-18.91v19.38h-11.73v-48.64h32.54v9h-20.81v11.19h18.91zM43.74 181.06L54.6 214.9l10.82-33.84h15.44v48.64H69.1v-11.36l1.13-23.25-11.76 34.61h-7.75l-11.79-34.64 1.13 23.28v11.36H28.33v-48.64zM105.18 202.17l8.95-21.11h12.67l-15.67 31.17v17.47h-11.9v-17.47L83.6 181.06h12.59zM171 229.7h-11.69l-17.24-30.27v30.27h-11.73v-48.64h11.73l17.2 30.27v-30.27H171zM215.6 190.11H201v39.59h-11.73v-39.59h-14.33v-9.05h40.66zM244.17 220.62H228.1l-2.81 9.08h-12.53l17.84-48.64h11l18 48.64H247zm-13.27-9.06h10.46l-5.24-16.87zM46.41 266.27h-6.35v17.21H28.33v-48.65h19.15q8.66 0 13.53 3.84t4.88 10.85a15.81 15.81 0 0 1-2.06 8.41 14.59 14.59 0 0 1-6.43 5.4L67.56 283v.51H55zm-6.35-9h7.42a6.68 6.68 0 0 0 5-1.76 8 8 0 0 0 0-9.85 6.62 6.62 0 0 0-5-1.79h-7.42zM120.58 283.48v-21.15h-5.68v-6.45h5.68v-21h15.67a23.16 23.16 0 0 1 11.6 2.92 20.54 20.54 0 0 1 8 8.26A24.83 24.83 0 0 1 158.8 258v2.24a25.1 25.1 0 0 1-2.82 12 20.58 20.58 0 0 1-7.95 8.28 22.45 22.45 0 0 1-11.44 3zm18.71-21.15h-7v12.13h4.08a9.12 9.12 0 0 0 7.75-3.6q2.7-3.58 2.7-10.67v-2.11c0-4.69-.9-8.24-2.7-10.62a9.31 9.31 0 0 0-7.89-3.57h-3.94v12h7z"/><path class="cls-2" d="M162.31 141.86h-3.51v-14.57h3.51zM176.55 136.93a5.4 5.4 0 0 1-.83 2.69 4.94 4.94 0 0 1-2.1 1.8 7.16 7.16 0 0 1-3.1.64 5.72 5.72 0 0 1-4.53-1.87 7.73 7.73 0 0 1-1.65-5.28v-.73a8.84 8.84 0 0 1 .75-3.75 5.65 5.65 0 0 1 2.14-2.48 6.05 6.05 0 0 1 3.25-.87 6.26 6.26 0 0 1 4.26 1.39 5.53 5.53 0 0 1 1.84 3.85h-3.51a2.62 2.62 0 0 0-.67-1.91 2.74 2.74 0 0 0-1.92-.58 2.09 2.09 0 0 0-1.92 1 6.25 6.25 0 0 0-.65 3.13v1a7 7 0 0 0 .59 3.33 2.14 2.14 0 0 0 2 1 2.7 2.7 0 0 0 1.85-.57 2.41 2.41 0 0 0 .68-1.81zM187.25 135.68h-5.53v3.48h6.53v2.7h-10v-14.57h10.06V130h-6.55v3.07h5.53zM193.2 139.16h6.11v2.7h-9.63v-14.57h3.52zM209.26 139.14h-4.81l-.84 2.72h-3.76l5.35-14.57h3.3l5.39 14.57h-3.77zm-4-2.71h3.13l-1.57-5.06zM227.13 141.86h-3.5l-5.16-9.07v9.07H215v-14.57h3.52l5.15 9.07v-9.07h3.51zM229.35 141.86v-14.57H234a7 7 0 0 1 3.48.87 6.23 6.23 0 0 1 2.41 2.47 7.49 7.49 0 0 1 .87 3.58v.68a7.51 7.51 0 0 1-.84 3.58 6.23 6.23 0 0 1-2.39 2.49 6.73 6.73 0 0 1-3.43.9zm3.51-11.86v9.16h1.22a2.74 2.74 0 0 0 2.33-1.08 5.24 5.24 0 0 0 .81-3.19v-.64a5.23 5.23 0 0 0-.81-3.18A2.8 2.8 0 0 0 234 130zM246.35 141.86h-3.51v-14.57h3.51zM260.59 136.93a5.3 5.3 0 0 1-.83 2.69 4.94 4.94 0 0 1-2.1 1.8 7.16 7.16 0 0 1-3.1.64 5.72 5.72 0 0 1-4.53-1.87 7.73 7.73 0 0 1-1.65-5.28v-.73a8.84 8.84 0 0 1 .75-3.75 5.65 5.65 0 0 1 2.14-2.48 6.05 6.05 0 0 1 3.25-.87 6.26 6.26 0 0 1 4.26 1.39 5.53 5.53 0 0 1 1.84 3.85h-3.51a2.58 2.58 0 0 0-.67-1.91 2.74 2.74 0 0 0-1.92-.58 2.09 2.09 0 0 0-1.92 1 6.26 6.26 0 0 0-.64 3.13v1a7 7 0 0 0 .58 3.33 2.14 2.14 0 0 0 2 1 2.7 2.7 0 0 0 1.85-.57 2.38 2.38 0 0 0 .68-1.81z"/><path class="cls-3" d="M158.8 158.89v-14.58h5.2a7.39 7.39 0 0 1 4.28 1 3.42 3.42 0 0 1 1.47 3 3.55 3.55 0 0 1-.52 1.94 3.1 3.1 0 0 1-1.54 1.18 3.06 3.06 0 0 1 1.76 1.12 3.3 3.3 0 0 1 .61 2 3.85 3.85 0 0 1-1.36 3.22 6.46 6.46 0 0 1-4 1.1zm3.52-8.5h1.83a2.56 2.56 0 0 0 1.64-.43 1.48 1.48 0 0 0 .49-1.21 1.55 1.55 0 0 0-.53-1.33A2.83 2.83 0 0 0 164 147h-1.72zm0 2.3v3.49h2.3a2.18 2.18 0 0 0 1.46-.43 1.53 1.53 0 0 0 .51-1.23 1.62 1.62 0 0 0-1.81-1.83zM175.54 156.18h6.12v2.71H172v-14.58h3.51zM194.85 151.9a8.67 8.67 0 0 1-.79 3.77 5.85 5.85 0 0 1-2.25 2.53 6.27 6.27 0 0 1-3.32.89 6.34 6.34 0 0 1-3.3-.86 5.81 5.81 0 0 1-2.25-2.45 8.35 8.35 0 0 1-.85-3.65v-.82a8.54 8.54 0 0 1 .79-3.78 5.78 5.78 0 0 1 2.25-2.53 6.34 6.34 0 0 1 3.34-.89 6.2 6.2 0 0 1 3.3.88 5.93 5.93 0 0 1 2.23 2.51 8.39 8.39 0 0 1 .82 3.73zm-3.58-.61a6.17 6.17 0 0 0-.72-3.3 2.35 2.35 0 0 0-2.08-1.13q-2.64 0-2.79 4v1.07a6.23 6.23 0 0 0 .71 3.29 2.32 2.32 0 0 0 2.11 1.15 2.28 2.28 0 0 0 2-1.13 6.06 6.06 0 0 0 .73-3.25zM208.45 154a5.29 5.29 0 0 1-.82 2.69 4.93 4.93 0 0 1-2.11 1.81 7.23 7.23 0 0 1-3.09.64 5.73 5.73 0 0 1-4.53-1.88 7.72 7.72 0 0 1-1.65-5.28v-.72a8.93 8.93 0 0 1 .74-3.75 5.76 5.76 0 0 1 2.15-2.49 6.05 6.05 0 0 1 3.25-.87 6.26 6.26 0 0 1 4.26 1.39 5.5 5.5 0 0 1 1.83 3.85H205a2.64 2.64 0 0 0-.67-1.91 2.74 2.74 0 0 0-1.92-.58 2.12 2.12 0 0 0-1.93 1 6.42 6.42 0 0 0-.64 3.14v1a7 7 0 0 0 .59 3.33 2.14 2.14 0 0 0 2 1 2.71 2.71 0 0 0 1.85-.57 2.41 2.41 0 0 0 .72-1.8zM215.07 153.46l-1.44 1.54v3.85h-3.51v-14.54h3.51v6.43l1.22-1.86 3.14-4.57h4.35l-4.93 6.45 4.93 8.13h-4.17zM234.71 154a5.29 5.29 0 0 1-.82 2.69 5 5 0 0 1-2.1 1.81 7.31 7.31 0 0 1-3.1.64 5.73 5.73 0 0 1-4.53-1.88 7.72 7.72 0 0 1-1.65-5.28v-.72a8.78 8.78 0 0 1 .75-3.75 5.68 5.68 0 0 1 2.14-2.51 6.05 6.05 0 0 1 3.25-.87 6.26 6.26 0 0 1 4.26 1.39 5.5 5.5 0 0 1 1.83 3.85h-3.5a2.64 2.64 0 0 0-.67-1.91 2.74 2.74 0 0 0-1.92-.58 2.09 2.09 0 0 0-1.92 1 6.29 6.29 0 0 0-.65 3.14v1a7 7 0 0 0 .59 3.33 2.14 2.14 0 0 0 2 1 2.7 2.7 0 0 0 1.85-.57 2.41 2.41 0 0 0 .68-1.81zM248.56 158.89h-3.49v-6.09h-5.18v6.09h-3.51v-14.58h3.51v5.79h5.18v-5.79h3.49zM259.24 156.16h-4.81l-.84 2.73h-3.76l5.35-14.58h3.3l5.39 14.58h-3.78zm-4-2.71h3.13l-1.57-5.06zM268.68 158.89h-3.51v-14.58h3.51zM283.29 158.89h-3.49l-5.17-9.07v9.07h-3.51v-14.58h3.51l5.16 9.07v-9.07h3.5z"/><path class="cls-2" d="M168 170.13h-5.66v5.8h-3.54v-14.58h9.76v2.72h-6.24v3.35H168zM182.36 168.94a8.57 8.57 0 0 1-.79 3.78 5.9 5.9 0 0 1-2.25 2.53 6.24 6.24 0 0 1-3.32.88 6.34 6.34 0 0 1-3.3-.85 5.87 5.87 0 0 1-2.25-2.45 8.36 8.36 0 0 1-.84-3.66v-.82a8.68 8.68 0 0 1 .78-3.78 5.83 5.83 0 0 1 2.26-2.52 6.61 6.61 0 0 1 6.64 0 5.91 5.91 0 0 1 2.26 2.5 8.42 8.42 0 0 1 .81 3.73zm-3.57-.61a6.09 6.09 0 0 0-.73-3.3 2.31 2.31 0 0 0-2.08-1.12q-2.64 0-2.79 4v1.07a6.37 6.37 0 0 0 .71 3.3 2.48 2.48 0 0 0 4.17 0 6.2 6.2 0 0 0 .73-3.26zM195.61 161.35v9.55a5.46 5.46 0 0 1-.69 2.8 4.38 4.38 0 0 1-2 1.81 6.86 6.86 0 0 1-3.05.62 6 6 0 0 1-4.19-1.38 4.89 4.89 0 0 1-1.57-3.78v-9.62h3.54V171c0 1.59.78 2.39 2.22 2.39a2.14 2.14 0 0 0 1.65-.6 2.77 2.77 0 0 0 .56-2v-9.53zM210 175.93h-3.5l-5.17-9.07v9.07h-3.53v-14.58h3.51l5.16 9.08v-9.08H210zM212.2 175.93v-14.58h4.69a7 7 0 0 1 3.48.88 6.16 6.16 0 0 1 2.41 2.47 7.49 7.49 0 0 1 .87 3.58v.72a7.55 7.55 0 0 1-.84 3.59 6.23 6.23 0 0 1-2.39 2.49 6.75 6.75 0 0 1-3.43.9zm3.51-11.86v9.16h1.22a2.74 2.74 0 0 0 2.33-1.08 5.28 5.28 0 0 0 .81-3.2v-.63a5.21 5.21 0 0 0-.81-3.18 2.8 2.8 0 0 0-2.37-1.07zM233.52 173.21h-4.81l-.84 2.72h-3.76l5.35-14.58h3.3l5.39 14.58h-3.78zm-4-2.71h3.13l-1.57-5.06zM249.45 164.07h-4.37v11.86h-3.52v-11.86h-4.29v-2.72h12.18zM254.68 175.93h-3.51v-14.58h3.51zM269.47 168.94a8.72 8.72 0 0 1-.79 3.78 5.9 5.9 0 0 1-2.25 2.53 6.27 6.27 0 0 1-3.32.88 6.4 6.4 0 0 1-3.31-.85 5.79 5.79 0 0 1-2.24-2.45 8.36 8.36 0 0 1-.85-3.66v-.82a8.54 8.54 0 0 1 .79-3.78 5.75 5.75 0 0 1 2.25-2.52 6.61 6.61 0 0 1 6.64 0 5.91 5.91 0 0 1 2.26 2.5 8.42 8.42 0 0 1 .82 3.73zm-3.58-.61a6.19 6.19 0 0 0-.72-3.3 2.34 2.34 0 0 0-2.08-1.12q-2.64 0-2.79 4v1.07a6.27 6.27 0 0 0 .71 3.3 2.47 2.47 0 0 0 4.16 0 6.1 6.1 0 0 0 .73-3.26zM283.45 175.93H280l-5.17-9.07v9.07h-3.51v-14.58h3.51l5.16 9.08v-9.08h3.5zM146.83 260.62c-.05 4.5-1 7.93-2.69 10.24a8.84 8.84 0 0 1-6.46 3.53h2.16l2.61 8.35a21.38 21.38 0 0 0 5.58-2.29 20.56 20.56 0 0 0 4.74-3.77zM139.29 255.88h-5.19l2 6.45h3.19v-6.45zM144.3 147.53h-10.94l2.81 9.02h11.46l-3.33-9.02z"/><path class="cls-2" d="M131.31 166.84v-9.05h-5.22l5.21-16.87.01.01v-4.59h8.85l-3.34-9.05h-11.03l-6.21 16.93v31.71h.9l2.81-9.09h8.02zM102.23 150.38a14.63 14.63 0 0 0 2-6.49l-4.68-12.67-.11-.1c-3-2.38-7.17-3.64-12.38-3.8l-3.3 9h2.15a6.58 6.58 0 0 1 5 1.79 6.16 6.16 0 0 1 1.54 3.21l.12-.39L97 155.18a13.88 13.88 0 0 0 5.23-4.8zM96.84 157.79h-9.5l2.86-9.27a7.21 7.21 0 0 1-4.32 1.18h-7.06l-9.62 26.23h9.26v-17.2h6.35l4 8.11h11.79l2.84 9.09H106v-.5zM44.12 210.33h9.01l-2.9-9.02h-9.18l3.07 9.02z"/><path class="cls-2" d="M39.67 210.33l-.44-9.02h-2.45v-11.2h9.86l-2.9-9.05h-15.4v48.65h8.44v-19.38h2.89zM170.97 181.06h-2.74l-8.96 21.11v9.16l-17.2-30.27h-4.38l15.64 31.17v6.98l5.98 10.5h5.91v-17.48l5.75-11.43v-19.74zM105.18 202.17l-8.99-21.11h-.5l-4.71 14.72 5.54 11.04 3.98-11.73-1.13 23.25v11.37h11.76v-41.56l-5.95 14.02zM187.91 190.11l-5.14-9.05h-7.83v9.05h12.97zM211.67 190.11v-9.05h-11.7v30.27l-10.69-18.82v18.35l10.73 18.85h.99v-39.6h10.67zM244.97 190.11l-3.34-9.05h-10.8v9.05h14.14zM245.16 190.63v33.17l1.85 5.91h9.88v-7.35l-11.73-31.73zM57.4 263.33a17.84 17.84 0 0 0 3.13-1.86L50.75 235c-1-.1-2.13-.17-3.27-.17h-7.82l-11.33 30.89v17.76h6l2.81-9.09h2.9v-8.12h6.35l4.05 8.12h2.77l2.84 9.09h11.51V283zm-4.89-7.84a6.41 6.41 0 0 1-4.61 1.73l2.52 8.11H40l2.49-8.08h-2.4v-13.4h7.42a6.62 6.62 0 0 1 5 1.79 8 8 0 0 1 0 9.85zM132.31 274.39v-9.06h-5.73l5.21-16.87.52 1.67v-6.24h3.94a10.81 10.81 0 0 1 4.77 1l-3.71-10h-11.06l-5.7 15.53v5.52h-2l-2.37 6.45h4.39v21.15h.43l2.8-9.09zM98 263.33a14.59 14.59 0 0 0 6.43-5.4 12.9 12.9 0 0 0 1.21-2.63L100 240l-11.42 3.89a6.35 6.35 0 0 1 4.53 1.75 6.92 6.92 0 0 1 1.7 4.94 8.11 8.11 0 0 1-.59 3.17l3.61 11.58H87.34l2.55-8.25a10.33 10.33 0 0 1-1.82.17h-7.42v-5L69.2 283.48h11.45v-17.21H87l4 8.12h9.55l2.84 9.09h4.71V283zM98.06 234.83H87.04l-2.8 7.63 14.79-5.02-.97-2.61z"/></svg>