<svg width="19" height="19" xmlns="http://www.w3.org/2000/svg"><path d="M16.742 0H2.258A2.256 2.256 0 0 0 0 2.253v14.494A2.256 2.256 0 0 0 2.258 19h14.484A2.256 2.256 0 0 0 19 16.747V2.253A2.256 2.256 0 0 0 16.742 0zm-3.086 2.968c0-.327.266-.593.594-.593h1.781c.328 0 .594.266.594.593V4.75a.594.594 0 0 1-.594.594H14.25a.594.594 0 0 1-.594-.594V2.968zM9.522 5.877a3.65 3.65 0 0 1 3.654 3.645 3.65 3.65 0 0 1-3.654 3.645 3.65 3.65 0 0 1-3.654-3.645 3.65 3.65 0 0 1 3.654-3.645zm7.697 10.748a.594.594 0 0 1-.594.594H2.375a.594.594 0 0 1-.594-.594V7.719h2.375c-.31.445-.414 1.275-.414 1.803 0 3.18 2.593 5.766 5.78 5.766 3.187 0 5.78-2.587 5.78-5.766 0-.528-.075-1.345-.458-1.803h2.375v8.906z" fill="#454545" fill-rule="evenodd"/></svg>