<svg width="22" height="21" xmlns="http://www.w3.org/2000/svg"><path d="M13.808 16.391l1.66-8.478c.068-.359.028-.616-.119-.77-.146-.155-.34-.184-.581-.086L5.013 11.13c-.218.09-.367.191-.446.305-.079.115-.088.223-.028.325.06.102.18.181.361.238l2.495.844 5.792-3.951c.158-.114.279-.139.362-.074.052.041.037.102-.046.184L8.818 13.59l-.18 2.789c.173 0 .342-.09.507-.27l1.22-1.272 2.529 2.019c.481.293.786.139.914-.465zm6.86-9.97c.555 1.298.832 2.657.832 4.079 0 1.422-.277 2.781-.832 4.078-.555 1.297-1.3 2.414-2.238 3.352-.938.937-2.055 1.683-3.352 2.238A10.264 10.264 0 0 1 11 21c-1.422 0-2.781-.277-4.078-.832-1.297-.555-2.414-1.3-3.352-2.238-.937-.938-1.683-2.055-2.238-3.352A10.264 10.264 0 0 1 .5 10.5c0-1.422.277-2.781.832-4.078.555-1.297 1.3-2.414 2.238-3.352.938-.937 2.055-1.683 3.352-2.238A10.264 10.264 0 0 1 11 0c1.422 0 2.781.277 4.078.832 1.297.555 2.414 1.3 3.352 2.238.937.938 1.683 2.055 2.238 3.352z" fill="#454545" fill-rule="evenodd"/></svg>