<svg width="22" height="18" xmlns="http://www.w3.org/2000/svg"><path d="M20.92.333a8.333 8.333 0 0 1-2.737 1.1A4.198 4.198 0 0 0 15.038 0c-2.377 0-4.306 2.035-4.306 4.544 0 .356.037.702.11 1.035-3.58-.19-6.754-1.997-8.88-4.75a4.73 4.73 0 0 0-.583 2.288c0 1.575.76 2.966 1.917 3.781a4.142 4.142 0 0 1-1.953-.566v.055c0 2.203 1.485 4.04 3.458 4.456a4.085 4.085 0 0 1-1.946.08c.548 1.804 2.138 3.118 4.024 3.154-1.475 1.219-3.333 1.945-5.351 1.945-.348 0-.692-.02-1.028-.062A11.756 11.756 0 0 0 7.105 18c7.925 0 12.258-6.923 12.258-12.928 0-.198-.004-.395-.011-.59A8.992 8.992 0 0 0 21.5 2.132a8.259 8.259 0 0 1-2.474.715A4.519 4.519 0 0 0 20.921.333" fill="#454545" fill-rule="evenodd"/></svg>