<svg width="21" height="21" xmlns="http://www.w3.org/2000/svg"><path d="M12.714 10.33L10.48 9.175c-.09-.057-.171-.06-.243-.01-.07.05-.107.138-.107.266v2.157c0 .114.036.196.107.246.072.05.152.046.243-.011l2.234-1.132c.104-.057.156-.12.156-.192 0-.071-.052-.128-.156-.17zM10.5 0C9.049 0 7.686.274 6.413.822a10.555 10.555 0 0 0-3.33 2.244 10.717 10.717 0 0 0-2.25 3.332A10.137 10.137 0 0 0 0 10.49c0 1.453.277 2.817.832 4.091a10.717 10.717 0 0 0 2.252 3.333 10.705 10.705 0 0 0 3.33 2.254A10.11 10.11 0 0 0 10.5 21a10.11 10.11 0 0 0 4.087-.833 10.705 10.705 0 0 0 3.33-2.254 10.717 10.717 0 0 0 2.25-3.333c.556-1.274.833-2.638.833-4.09 0-1.453-.277-2.817-.832-4.092a10.717 10.717 0 0 0-2.252-3.332 10.555 10.555 0 0 0-3.33-2.244A10.222 10.222 0 0 0 10.5 0zm.457 14.609c-2.697 0-4.284-.23-4.762-.69-.478-.46-.717-1.603-.717-3.43 0-1.825.24-2.965.717-3.418.478-.453 2.065-.68 4.762-.68 2.696 0 4.283.227 4.76.68.479.453.718 1.593.718 3.419s-.24 2.969-.717 3.429c-.478.46-2.065.69-4.761.69z" fill="#454545" fill-rule="evenodd"/></svg>